<svg xmlns="http://www.w3.org/2000/svg" viewBox="0 0 900 430"><rect width="900" height="430" fill="#0a0d0e"/><g stroke="#d7ad67" fill="none" stroke-width="4"><path d="M150 215q0-100 95-100t95 100q0 100-95 100t-95-100Z"/><path d="M340 215H560"/><path d="M560 215q0-100 95-100t95 100q0 100-95 100t-95-100Z"/><path d="M210 160q35 55 0 110M630 160q-35 55 0 110"/><path d="M295 215q45-55 90 0t90 0t90 0" stroke="#78a6b8"/><path d="M420 130v170" stroke="#78a6b8"/></g><g fill="#e8e1d6" font-family="monospace" font-size="19"><text x="100" y="360">VOCE → membrana</text><text x="365" y="360">segnale elettrico</text><text x="650" y="360">membrana → ORECCHIO</text></g><text x="55" y="55" fill="#d7ad67" font-family="serif" font-size="30">TELEFONO · TRASFORMARE UNA VIBRAZIONE</text></svg>
